<?xml version="1.0" encoding="UTF-8" standalone="no" ?>
<!DOCTYPE svg PUBLIC "-//W3C//DTD SVG 1.1//EN" "http://www.w3.org/Graphics/SVG/1.1/DTD/svg11.dtd">
<svg xmlns="http://www.w3.org/2000/svg" xmlns:xlink="http://www.w3.org/1999/xlink" version="1.1" width="1280" height="1024" viewBox="0 0 1280 1024" xml:space="preserve">
<desc>Created with Fabric.js 5.3.0</desc>
<defs>
</defs>
<g transform="matrix(1 0 0 1 640 512)" id="background-logo"  >
<rect style="stroke: none; stroke-width: 0; stroke-dasharray: none; stroke-linecap: butt; stroke-dashoffset: 0; stroke-linejoin: miter; stroke-miterlimit: 4; fill: rgb(255,255,255); fill-opacity: 0; fill-rule: nonzero; opacity: 1;"  paint-order="stroke"  x="-640" y="-512" rx="0" ry="0" width="1280" height="1024" />
</g>
<g transform="matrix(1.9211538461538462 0 0 1.9211538461538462 640 353.8551537613216)" id="logo-logo"  >
<g style=""  paint-order="stroke"   >
		<g transform="matrix(2.0358928902394298 0 0 -2.0358928902394298 0 0)"  >
<path style="stroke: none; stroke-width: 1; stroke-dasharray: none; stroke-linecap: butt; stroke-dashoffset: 0; stroke-linejoin: miter; stroke-miterlimit: 4; fill: rgb(53,31,23); fill-rule: nonzero; opacity: 1;"  paint-order="stroke"  transform=" translate(18.75099999999999, -57.214999999999996)" d="M 0 0 L 0 8.686 L 5.381 14.065999999999999 C 5.8260000000000005 14.018999999999998 6.272 13.991 6.718 13.991 C 8.384 13.991 10.001999999999999 14.312999999999999 11.495999999999999 14.931 C 12.989999999999998 15.547999999999998 14.360999999999999 16.465999999999998 15.54 17.637999999999998 C 18.378 20.482 19.680999999999997 24.546999999999997 19.022 28.522999999999996 L 18.863999999999997 29.489999999999995 L 17.897999999999996 29.647999999999996 C 17.219999999999995 29.764999999999997 16.526999999999997 29.818999999999996 15.834999999999996 29.818999999999996 C 12.502999999999997 29.818999999999996 9.369999999999996 28.522999999999996 7.012999999999996 26.165999999999997 C 4.346 23.492 3.037 19.742 3.435 16 L -0.6240000000000001 11.942 C -0.9050000000000001 12.524000000000001 -1.2550000000000001 13.059000000000001 -1.6460000000000001 13.449 L -7.849 19.653 C -8.273 20.078 -8.692 21.086 -8.692 21.688 L -8.692 31.588 C -8.692 32.19 -8.273 33.199 -7.849 33.623000000000005 L -1.646 39.827000000000005 C -0.706 40.767 0 42.474 0 43.796 L 0 50.877 L 5.381 56.260000000000005 C 5.8260000000000005 56.211000000000006 6.272 56.17700000000001 6.718 56.17700000000001 C 10.049 56.17700000000001 13.182 57.479000000000006 15.54 59.830000000000005 C 18.378 62.675000000000004 19.680999999999997 66.74000000000001 19.022 70.71600000000001 L 18.863999999999997 71.683 L 17.897999999999996 71.84 C 17.219999999999995 71.956 16.526999999999997 72.01100000000001 15.834999999999996 72.01100000000001 C 12.502999999999997 72.01100000000001 9.369999999999996 70.71600000000001 7.012999999999996 68.35700000000001 C 4.346 65.685 3.037 61.928 3.435 58.191 L 0 54.757 L 0 63.559 C 2.927 65.917 4.654 69.502 4.654 73.279 C 4.654 77.297 2.7009999999999996 81.094 -0.5760000000000005 83.438 L -1.3710000000000004 84.008 L -2.1660000000000004 83.438 C -5.4430000000000005 81.09400000000001 -7.396000000000001 77.297 -7.396000000000001 73.279 C -7.396000000000001 69.502 -5.6690000000000005 65.917 -2.742000000000001 63.559 L -2.742000000000001 54.14 L -2.742000000000001 43.796 C -2.742000000000001 43.2 -3.160000000000001 42.192 -3.585000000000001 41.760999999999996 L -9.789000000000001 35.562999999999995 C -9.878000000000002 35.468999999999994 -9.974000000000002 35.358 -10.063000000000002 35.248999999999995 C -10.152000000000003 35.358 -10.241000000000003 35.468999999999994 -10.338000000000003 35.562999999999995 L -16.534000000000002 41.760999999999996 C -16.966 42.19199999999999 -17.377000000000002 43.199999999999996 -17.377000000000002 43.79599999999999 L -17.377000000000002 54.13999999999999 L -17.377000000000002 69.13999999999999 C -14.451000000000002 71.49699999999999 -12.723000000000003 75.082 -12.723000000000003 78.85899999999998 C -12.723000000000003 82.87699999999998 -14.677000000000003 86.67399999999998 -17.953000000000003 89.01199999999999 L -18.748000000000005 89.57999999999998 L -19.550000000000004 89.01199999999999 C -22.827000000000005 86.67399999999999 -24.780000000000005 82.87699999999998 -24.780000000000005 78.85899999999998 C -24.780000000000005 75.08199999999998 -23.053000000000004 71.49699999999999 -20.119000000000007 69.13999999999999 L -20.119000000000007 54.139999999999986 L -20.119000000000007 43.795999999999985 C -20.119000000000007 42.47399999999998 -19.413000000000007 40.76699999999998 -18.474000000000007 39.826999999999984 L -12.277000000000008 33.62299999999998 C -11.852000000000007 33.198999999999984 -11.435000000000008 32.18999999999998 -11.435000000000008 31.587999999999983 L -11.435000000000008 21.68799999999998 L -11.435000000000008 21.25099999999998 L -11.406000000000008 21.25099999999998 C -11.276000000000007 20.00299999999998 -10.626000000000008 18.548999999999978 -9.789000000000009 17.71399999999998 L -3.585000000000009 11.516999999999982 C -3.160000000000009 11.091999999999981 -2.742000000000009 10.076999999999982 -2.742000000000009 9.480999999999982 L -2.742000000000009 -0.827 C -7.419 -2.119 -12.321 -2.855 -17.377 -2.97 L -17.377 9.481 C -17.377 10.804 -18.09 12.518 -19.029 13.449 L -25.226 19.653 C -25.651 20.078 -26.069 21.086 -26.069 21.688 L -26.069 31.588 L -26.069 32.026 L -26.096999999999998 32.026 C -26.226999999999997 33.273 -26.877999999999997 34.728 -27.714 35.563 L -33.918 41.761 C -34.342999999999996 42.192 -34.762 43.2 -34.762 43.79600000000001 L -34.762 54.14000000000001 L -34.762 63.55900000000001 C -31.834 65.91700000000002 -30.1 69.50200000000001 -30.1 73.27900000000001 C -30.1 77.29700000000001 -32.061 81.09400000000001 -35.337 83.43800000000002 L -36.132000000000005 84.00800000000001 L -36.92700000000001 83.43800000000002 C -40.20400000000001 81.09400000000002 -42.15800000000001 77.29700000000001 -42.15800000000001 73.27900000000001 C -42.15800000000001 69.50200000000001 -40.43100000000001 65.91700000000002 -37.50300000000001 63.55900000000001 L -37.50300000000001 54.75700000000001 L -40.93800000000001 58.19100000000001 C -40.53300000000001 61.92800000000001 -41.84300000000001 65.685 -44.51600000000001 68.35700000000001 C -46.87400000000001 70.71600000000001 -50.00700000000001 72.01100000000001 -53.33800000000001 72.01100000000001 C -54.02300000000001 72.01100000000001 -54.723000000000006 71.956 -55.39500000000001 71.84 L -56.36100000000001 71.683 L -56.52500000000001 70.71600000000001 C -57.18400000000001 66.74000000000001 -55.88200000000001 62.67500000000001 -53.04300000000001 59.83000000000001 C -50.686000000000014 57.47900000000001 -47.55300000000001 56.177000000000014 -44.22100000000002 56.177000000000014 C -43.77500000000002 56.177000000000014 -43.33000000000002 56.21100000000001 -42.88500000000002 56.26000000000001 L -37.50300000000002 50.87700000000001 L -37.50300000000002 43.79600000000001 C -37.50300000000002 42.474000000000004 -36.79700000000002 40.76700000000001 -35.85800000000002 39.827000000000005 L -29.654000000000018 33.623000000000005 C -29.229000000000017 33.199000000000005 -28.81200000000002 32.190000000000005 -28.81200000000002 31.588000000000005 L -28.81200000000002 21.688000000000002 L -28.81200000000002 21.251 C -28.81200000000002 20.647000000000002 -29.22900000000002 19.641000000000002 -29.654000000000018 19.215 L -35.85800000000002 13.011 C -36.18000000000002 12.683 -36.481000000000016 12.257 -36.72900000000002 11.790999999999999 L -40.938 16 C -40.533 19.742 -41.843 23.492 -44.516000000000005 26.166 C -46.874 28.523 -50.007000000000005 29.819 -53.33800000000001 29.819 C -54.02300000000001 29.819 -54.71600000000001 29.765 -55.39500000000001 29.648 L -56.36100000000001 29.49 L -56.52500000000001 28.523 C -57.18400000000001 24.547 -55.88200000000001 20.482 -53.04300000000001 17.637999999999998 C -50.686000000000014 15.285999999999998 -47.55300000000001 13.990999999999998 -44.22100000000002 13.990999999999998 C -43.77500000000002 13.990999999999998 -43.33000000000002 14.018999999999998 -42.88500000000002 14.065999999999997 L -37.50300000000002 8.685999999999996 L -37.50300000000002 0 C -61.55200000000002 7.901 -78.97200000000002 30.557 -78.97200000000002 57.216 C -78.97200000000002 90.42 -51.95700000000002 117.435 -18.752000000000024 117.435 C 14.45399999999998 117.435 41.46899999999997 90.42 41.46899999999997 57.216 C 41.469 30.557 24.05 7.902 0 0 M -20.119 -2.971 C -25.177 -2.856 -30.082 -2.12 -34.762 -0.827 L -34.762 9.035 C -34.762 9.638 -34.343 10.646 -33.918 11.071 L -27.714 17.274 C -27.557 17.433 -27.406 17.624000000000002 -27.261999999999997 17.823 C -27.227999999999998 17.789 -27.199999999999996 17.747 -27.165999999999997 17.714 L -20.961999999999996 11.517 C -20.536999999999995 11.091999999999999 -20.118999999999996 10.077 -20.118999999999996 9.481 z M -18.752 120.17699999999999 C -53.468999999999994 120.17699999999999 -81.713 91.93299999999999 -81.713 57.215999999999994 C -81.713 22.496999999999993 -53.468999999999994 -5.747000000000007 -18.751999999999995 -5.747000000000007 C 15.966000000000008 -5.747000000000007 44.211000000000006 22.496999999999993 44.211000000000006 57.215999999999994 C 44.211000000000006 91.93299999999999 15.966000000000005 120.17699999999999 -18.751999999999995 120.17699999999999" stroke-linecap="round" />
</g>
		<g transform="matrix(2.0358928902394298 0 0 -2.0358928902394298 -35.37954305729181 -32.70600851382932)"  >
<path style="stroke: none; stroke-width: 1; stroke-dasharray: none; stroke-linecap: butt; stroke-dashoffset: 0; stroke-linejoin: miter; stroke-miterlimit: 4; fill: rgb(132,187,65); fill-rule: nonzero; opacity: 1;"  paint-order="stroke"  transform=" translate(-0.0030000000000001137, 7.2935)" d="M 0 0 C 2.077 -1.844 3.29 -4.497 3.29 -7.294 C 3.29 -10.091 2.077 -12.742999999999999 0 -14.587 C -2.07 -12.743 -3.284 -10.091 -3.284 -7.294 C -3.284 -4.497 -2.07 -1.8439999999999994 0 0" stroke-linecap="round" />
</g>
		<g transform="matrix(2.0358928902394298 0 0 -2.0358928902394298 -61.1349994631243 -14.005080389133212)"  >
<path style="stroke: none; stroke-width: 1; stroke-dasharray: none; stroke-linecap: butt; stroke-dashoffset: 0; stroke-linejoin: miter; stroke-miterlimit: 4; fill: rgb(132,187,65); fill-rule: nonzero; opacity: 1;"  paint-order="stroke"  transform=" translate(2.3234932311176753, 2.3228149281491977)" d="M 0 0 C 1.975 -1.974 2.996 -4.708 2.832 -7.479 C 0.027 -7.643 -2.673 -6.622 -4.647 -4.646 C -6.621 -2.673 -7.643 0.069 -7.479 2.832 C -4.682 3.003 -1.98 1.981 0 0" stroke-linecap="round" />
</g>
		<g transform="matrix(2.0358928902394298 0 0 -2.0358928902394298 -61.1349994631243 71.8944153906586)"  >
<path style="stroke: none; stroke-width: 1; stroke-dasharray: none; stroke-linecap: butt; stroke-dashoffset: 0; stroke-linejoin: miter; stroke-miterlimit: 4; fill: rgb(132,187,65); fill-rule: nonzero; opacity: 1;"  paint-order="stroke"  transform=" translate(2.3234932311176753, 2.323956682980766)" d="M 0 0 C 1.975 -1.975 2.996 -4.71 2.832 -7.479 C 0.027 -7.65 -2.666 -6.622 -4.647 -4.648 C -6.621 -2.674 -7.643 0.068 -7.479 2.831 C -4.682 3.002 -1.98 1.98 0 0" stroke-linecap="round" />
</g>
		<g transform="matrix(2.0358928902394298 0 0 -2.0358928902394298 61.131973529505274 71.89421180136964)"  >
<path style="stroke: none; stroke-width: 1; stroke-dasharray: none; stroke-linecap: butt; stroke-dashoffset: 0; stroke-linejoin: miter; stroke-miterlimit: 4; fill: rgb(132,187,65); fill-rule: nonzero; opacity: 1;"  paint-order="stroke"  transform=" translate(5.155493062013757, 5.154956682980766)" d="M 0 0 C 0.164 -2.763 -0.857 -5.505 -2.831 -7.479 C -4.806 -9.453 -7.507 -10.481 -10.311 -10.31 C -10.475 -7.541 -9.453 -4.806000000000001 -7.479 -2.8310000000000004 C -5.498 -0.851 -2.804 0.171 0 0" stroke-linecap="round" />
</g>
		<g transform="matrix(2.0358928902394298 0 0 -2.0358928902394298 61.131973529505274 -14.003977429143333)"  >
<path style="stroke: none; stroke-width: 1; stroke-dasharray: none; stroke-linecap: butt; stroke-dashoffset: 0; stroke-linejoin: miter; stroke-miterlimit: 4; fill: rgb(132,187,65); fill-rule: nonzero; opacity: 1;"  paint-order="stroke"  transform=" translate(5.155493062013757, 5.155456685525115)" d="M 0 0 C 0.164 -2.763 -0.857 -5.505 -2.831 -7.479 C -4.806 -9.454 -7.507 -10.482 -10.311 -10.311 C -10.475 -7.54 -9.453 -4.806 -7.479 -2.832 C -5.498 -0.851 -2.804 0.171 0 0" stroke-linecap="round" />
</g>
		<g transform="matrix(2.0358928902394298 0 0 -2.0358928902394298 35.38463278951741 -32.70600851382932)"  >
<path style="stroke: none; stroke-width: 1; stroke-dasharray: none; stroke-linecap: butt; stroke-dashoffset: 0; stroke-linejoin: miter; stroke-miterlimit: 4; fill: rgb(132,187,65); fill-rule: nonzero; opacity: 1;"  paint-order="stroke"  transform=" translate(-0.000500000000000167, 7.2935)" d="M 0 0 C 2.077 -1.844 3.284 -4.497 3.284 -7.294 C 3.284 -10.091 2.077 -12.742999999999999 0 -14.587 C -2.077 -12.743 -3.283 -10.091 -3.283 -7.294 C -3.283 -4.497 -2.077 -1.8439999999999994 0 0" stroke-linecap="round" />
</g>
		<g transform="matrix(2.0358928902394298 0 0 -2.0358928902394298 -0.001221535734146073 -44.058554448382466)"  >
<path style="stroke: none; stroke-width: 1; stroke-dasharray: none; stroke-linecap: butt; stroke-dashoffset: 0; stroke-linejoin: miter; stroke-miterlimit: 4; fill: rgb(132,187,65); fill-rule: nonzero; opacity: 1;"  paint-order="stroke"  transform=" translate(0.0034999999999998366, 7.2905)" d="M 0 0 C 2.07 -1.837 3.283 -4.497 3.283 -7.287 C 3.283 -10.084 2.07 -12.744 0 -14.581 C -2.077 -12.744 -3.29 -10.084 -3.29 -7.287 C -3.29 -4.497 -2.077 -1.8369999999999997 0 0" stroke-linecap="round" />
</g>
		<g transform="matrix(2.0358928902394298 0 0 -2.0358928902394298 1.7995257256825994 -44.058961626960524)"  >
<path style="stroke: none; stroke-width: 1; stroke-dasharray: none; stroke-linecap: butt; stroke-dashoffset: 0; stroke-linejoin: miter; stroke-miterlimit: 4; fill: rgb(62,107,8); fill-rule: nonzero; opacity: 1;"  paint-order="stroke"  transform=" translate(-0.8790000000000001, -5.8425)" d="M 0 0 C -0.171 0.192 -0.337 0.396 -0.495 0.608 C 0.40800000000000003 2.222 0.882 4.019 0.882 5.846 C 0.882 7.67 0.40800000000000003 9.464 -0.4939999999999999 11.077 C -0.33699999999999986 11.29 -0.17099999999999987 11.491999999999999 0.001000000000000112 11.685 C 1.441 10.089 2.253 8.009 2.253 5.846 C 2.253 3.679 1.441 1.596 0 0" stroke-linecap="round" />
</g>
		<g transform="matrix(2.0358928902394298 0 0 -2.0358928902394298 37.17703289008415 -32.69847571013548)"  >
<path style="stroke: none; stroke-width: 1; stroke-dasharray: none; stroke-linecap: butt; stroke-dashoffset: 0; stroke-linejoin: miter; stroke-miterlimit: 4; fill: rgb(62,107,8); fill-rule: nonzero; opacity: 1;"  paint-order="stroke"  transform=" translate(-0.8790000000000001, -5.8425)" d="M 0 0 C -0.171 0.192 -0.337 0.396 -0.495 0.607 C 0.40700000000000003 2.222 0.882 4.019 0.882 5.846 C 0.882 7.67 0.40800000000000003 9.464 -0.495 11.077 C -0.337 11.29 -0.171 11.492 0 11.685 C 1.441 10.089 2.253 8.009 2.253 5.846 C 2.253 3.679 1.441 1.596 0 0" stroke-linecap="round" />
</g>
		<g transform="matrix(2.0358928902394298 0 0 -2.0358928902394298 61.13684554744498 -14.001649763332637)"  >
<path style="stroke: none; stroke-width: 1; stroke-dasharray: none; stroke-linecap: butt; stroke-dashoffset: 0; stroke-linejoin: miter; stroke-miterlimit: 4; fill: rgb(62,107,8); fill-rule: nonzero; opacity: 1;"  paint-order="stroke"  transform=" translate(-4.132, -4.1315)" d="M 0 0 C 0.016 0.258 0.041 0.518 0.08 0.78 C 1.859 1.282 3.465 2.218 4.758 3.51 C 6.048 4.799 6.98 6.404 7.482 8.183 C 7.745 8.221 8.006 8.248 8.264 8.263 C 8.153 6.115 7.257 4.07 5.727 2.54 C 4.211 1.024 2.145 0.113 0 0" stroke-linecap="round" />
</g>
		<g transform="matrix(2.0358928902394298 0 0 -2.0358928902394298 61.13684554744498 71.89552152591517)"  >
<path style="stroke: none; stroke-width: 1; stroke-dasharray: none; stroke-linecap: butt; stroke-dashoffset: 0; stroke-linejoin: miter; stroke-miterlimit: 4; fill: rgb(62,107,8); fill-rule: nonzero; opacity: 1;"  paint-order="stroke"  transform=" translate(-4.132, -4.1315)" d="M 0 0 C 0.016 0.258 0.041 0.518 0.08 0.779 C 1.859 1.281 3.465 2.218 4.758 3.51 C 6.048 4.799 6.98 6.403 7.482 8.183 C 7.745 8.221 8.006 8.248 8.264 8.263 C 8.153 6.113 7.257 4.069 5.727 2.54 C 4.211 1.023 2.145 0.111 0 0" stroke-linecap="round" />
</g>
		<g transform="matrix(2.0358928902394298 0 0 -2.0358928902394298 -33.592029099661545 -32.69847571013548)"  >
<path style="stroke: none; stroke-width: 1; stroke-dasharray: none; stroke-linecap: butt; stroke-dashoffset: 0; stroke-linejoin: miter; stroke-miterlimit: 4; fill: rgb(62,107,8); fill-rule: nonzero; opacity: 1;"  paint-order="stroke"  transform=" translate(-0.8790000000000001, -5.8425)" d="M 0 0 C -0.172 0.192 -0.337 0.396 -0.495 0.607 C 0.40700000000000003 2.222 0.882 4.019 0.882 5.846 C 0.882 7.67 0.40700000000000003 9.464 -0.495 11.077 C -0.337 11.29 -0.172 11.492 0 11.685 C 1.441 10.089 2.253 8.009 2.253 5.846 C 2.253 3.679 1.441 1.596 0 0" stroke-linecap="round" />
</g>
		<g transform="matrix(2.0358928902394298 0 0 -2.0358928902394298 -61.13765990460104 -14.001649763332637)"  >
<path style="stroke: none; stroke-width: 1; stroke-dasharray: none; stroke-linecap: butt; stroke-dashoffset: 0; stroke-linejoin: miter; stroke-miterlimit: 4; fill: rgb(62,107,8); fill-rule: nonzero; opacity: 1;"  paint-order="stroke"  transform=" translate(4.1315, -4.1315)" d="M 0 0 C -2.145 0.112 -4.209 1.021 -5.723 2.536 C -7.255 4.068 -8.153 6.115 -8.263 8.263 C -8.006 8.248 -7.745 8.221 -7.482 8.183 C -6.979 6.402 -6.045 4.798 -4.753 3.5060000000000002 C -3.463 2.216 -1.858 1.2810000000000001 -0.08000000000000007 0.7790000000000004 C -0.041 0.518 -0.015 0.258 0 0" stroke-linecap="round" />
</g>
		<g transform="matrix(2.0358928902394298 0 0 -2.0358928902394298 -61.13765990460104 71.89552152591517)"  >
<path style="stroke: none; stroke-width: 1; stroke-dasharray: none; stroke-linecap: butt; stroke-dashoffset: 0; stroke-linejoin: miter; stroke-miterlimit: 4; fill: rgb(62,107,8); fill-rule: nonzero; opacity: 1;"  paint-order="stroke"  transform=" translate(4.1315, -4.1315)" d="M 0 0 C -2.145 0.111 -4.209 1.022 -5.723 2.535 C -7.255 4.067 -8.153 6.1129999999999995 -8.263 8.263 C -8.006 8.248 -7.745 8.221 -7.482 8.183 C -6.979 6.403 -6.045 4.798 -4.753 3.5060000000000002 C -3.463 2.215 -1.858 1.281 -0.08 0.779 C -0.041 0.518 -0.015 0.258 0 0" stroke-linecap="round" />
</g>
</g>
</g>
<g transform="matrix(1.9211538461538462 0 0 1.9211538461538462 640.5921469338499 711.3287930907255)" id="text-logo"  >
<g style=""  paint-order="stroke"   >
		<g transform="matrix(1 0 0 1 0 0)" id="text-logo-path-0"  >
<path style="stroke: none; stroke-width: 0; stroke-dasharray: none; stroke-linecap: butt; stroke-dashoffset: 0; stroke-linejoin: miter; stroke-miterlimit: 4; fill: rgb(53,31,23); fill-rule: nonzero; opacity: 1;"  paint-order="stroke"  transform=" translate(-146.10999999999999, 31.415)" d="M 1.91 -31.14 L 1.91 -31.14 Q 1.91 -45.58 10.45 -54.12 L 10.45 -54.12 Q 19.2 -63 33.77 -63 L 33.77 -63 Q 43.71 -63 55.78 -58.45 L 55.78 -58.45 L 55.78 -44.01 L 51.57 -44.01 Q 49.96 -44.01 49.74 -45.41 L 49.74 -45.41 Q 49.74 -45.54 49.66 -46.45 Q 49.57 -47.37 49.38 -49.28 Q 49.19 -51.19 49.06 -53.31 L 49.06 -53.31 L 45.84 -54.29 Q 40.36 -55.69 34.62 -55.69 L 34.62 -55.69 Q 28.25 -55.69 24 -53.95 L 24 -53.95 Q 19.84 -52.25 16.78 -49.06 L 16.78 -49.06 Q 10.62 -42.52 10.62 -31.14 L 10.62 -31.14 Q 10.62 -19.41 16.95 -12.7 L 16.95 -12.7 Q 23.32 -6.07 33.39 -6.07 L 33.39 -6.07 Q 41.84 -6.07 48.81 -9.73 L 48.81 -9.73 L 48.81 -23.49 L 39.17 -23.49 Q 38.27 -23.49 37.77 -24 Q 37.26 -24.51 37.26 -25.15 L 37.26 -25.15 L 37.26 -29.95 L 56.37 -29.95 L 56.37 -5.99 Q 47.11 0.68 32.71 0.68 L 32.71 0.68 Q 19.03 0.68 10.54 -8.07 L 10.54 -8.07 Q 1.91 -16.95 1.91 -31.14 Z M 82.71 0 L 62.45 0 L 62.45 -3.65 Q 62.45 -5.06 63.72 -5.31 L 63.72 -5.31 L 68.69 -6.24 L 68.69 -37.68 Q 64.49 -38.44 63.72 -38.7 L 63.72 -38.7 Q 62.45 -38.95 62.45 -40.36 L 62.45 -40.36 L 62.45 -44.01 L 68.69 -44.01 L 73.15 -44.01 Q 74.34 -44.01 74.77 -43.58 L 74.77 -43.58 Q 75.23 -43.12 75.49 -41.93 L 75.49 -41.93 L 76 -35.05 L 76.08 -35.05 Q 80.93 -44.9 89.51 -44.9 L 89.51 -44.9 Q 92.9 -44.9 95.5 -43.33 L 95.5 -43.33 L 94.52 -37.51 Q 94.22 -36.36 93.41 -36.36 L 93.41 -36.36 Q 92.73 -36.36 91.33 -36.79 L 91.33 -36.79 Q 89.76 -37.26 87.76 -37.26 L 87.76 -37.26 Q 80.12 -37.26 76.42 -27.99 L 76.42 -27.99 L 76.42 -6.24 Q 76.72 -6.16 77.38 -6.05 Q 78.04 -5.95 79.18 -5.73 Q 80.33 -5.52 81.39 -5.31 L 81.39 -5.31 Q 82.71 -5.06 82.71 -3.65 L 82.71 -3.65 L 82.71 0 Z M 98.77 -12.7 Q 97.37 -16.4 97.37 -22.09 Q 97.37 -27.78 98.77 -31.48 L 98.77 -31.48 Q 100.47 -35.94 103.02 -38.61 L 103.02 -38.61 Q 105.82 -41.55 109.73 -43.16 L 109.73 -43.16 Q 113.55 -44.73 118.44 -44.73 L 118.44 -44.73 Q 123.28 -44.73 127.1 -43.16 L 127.1 -43.16 Q 131.01 -41.55 133.81 -38.61 L 133.81 -38.61 Q 136.45 -35.85 137.98 -31.48 L 137.98 -31.48 Q 139.46 -27.23 139.46 -22.09 Q 139.46 -16.95 137.98 -12.7 L 137.98 -12.7 Q 136.45 -8.33 133.81 -5.56 L 133.81 -5.56 Q 131.05 -2.68 127.1 -1.06 L 127.1 -1.06 Q 123.28 0.51 118.44 0.51 L 118.44 0.51 Q 113.55 0.51 109.73 -1.06 L 109.73 -1.06 Q 105.78 -2.68 103.02 -5.56 L 103.02 -5.56 Q 100.47 -8.24 98.77 -12.7 L 98.77 -12.7 Z M 105.35 -21.92 L 105.35 -21.92 Q 105.35 -18.61 106.24 -14.95 L 106.24 -14.95 Q 106.97 -11.94 108.67 -9.73 L 108.67 -9.73 Q 110.19 -7.73 112.7 -6.63 L 112.7 -6.63 Q 115.55 -5.4 118.44 -5.4 L 118.44 -5.4 Q 125.15 -5.4 128.16 -9.73 L 128.16 -9.73 Q 131.39 -14.36 131.39 -22 Q 131.39 -29.65 128.16 -34.28 L 128.16 -34.28 Q 125.15 -38.61 118.44 -38.61 L 118.44 -38.61 Q 115.08 -38.61 112.7 -37.6 L 112.7 -37.6 Q 110.45 -36.62 108.67 -34.28 L 108.67 -34.28 Q 106.97 -32.07 106.24 -29.06 L 106.24 -29.06 Q 105.35 -25.4 105.35 -21.92 Z M 142.61 -40.36 L 142.61 -40.36 L 142.61 -44.01 L 162.28 -44.01 L 162.28 -40.36 Q 162.28 -38.95 160.96 -38.7 L 160.96 -38.7 Q 160.75 -38.61 160.15 -38.51 Q 159.56 -38.4 158.37 -38.19 Q 157.18 -37.98 156.16 -37.77 L 156.16 -37.77 L 163.13 -14.1 Q 163.34 -13.13 163.61 -11.81 Q 163.89 -10.49 164.08 -9.58 Q 164.27 -8.67 164.36 -8.07 L 164.36 -8.07 Q 164.53 -8.96 166.1 -14.1 L 166.1 -14.1 L 175.32 -42.65 Q 175.83 -44.18 177.4 -44.18 L 177.4 -44.18 L 180.8 -44.18 Q 182.45 -44.18 182.96 -42.65 L 182.96 -42.65 L 192.1 -14.1 Q 192.99 -10.79 193.67 -8.2 L 193.67 -8.2 Q 194.14 -10.88 194.99 -14.1 L 194.99 -14.1 L 202.12 -37.77 Q 201.74 -37.77 197.07 -38.7 L 197.07 -38.7 Q 195.67 -39 195.67 -40.36 L 195.67 -40.36 L 195.67 -44.01 L 215.33 -43.92 L 215.33 -40.19 Q 215.33 -38.87 214.02 -38.61 L 214.02 -38.61 Q 213.89 -38.61 213.61 -38.55 Q 213.34 -38.49 212.85 -38.38 Q 212.36 -38.27 211.85 -38.19 Q 211.34 -38.1 210.83 -38 Q 210.32 -37.89 210.04 -37.83 Q 209.77 -37.77 209.68 -37.77 L 209.68 -37.77 L 197.41 0 L 191.33 0 Q 190.1 0 189.76 -1.4 L 189.76 -1.4 L 179.99 -31.31 Q 179.78 -31.9 179.4 -33.39 L 179.4 -33.39 Q 179.31 -33.64 179.18 -34.32 Q 179.06 -35 178.97 -35.3 L 178.97 -35.3 Q 178.89 -34.96 178.8 -34.26 Q 178.72 -33.56 178.63 -33.22 Q 178.55 -32.88 178.35 -32.26 Q 178.16 -31.65 178.08 -31.31 L 178.08 -31.31 L 168.18 -1.49 Q 167.71 0 166.44 0 L 166.44 0 L 160.53 0 L 148.34 -37.85 Q 147.87 -37.85 146.85 -38.1 L 146.85 -38.1 Q 146.13 -38.23 145.43 -38.4 Q 144.73 -38.57 144.41 -38.64 Q 144.09 -38.7 143.97 -38.7 L 143.97 -38.7 Q 142.61 -38.95 142.61 -40.36 Z M 258.62 0 L 238.32 0 L 238.32 -3.74 Q 238.32 -4.33 238.7 -4.8 Q 239.08 -5.27 239.63 -5.4 L 239.63 -5.4 L 244.69 -6.37 L 244.69 -37.77 Q 240.4 -38.53 239.63 -38.7 L 239.63 -38.7 Q 239.08 -38.83 238.7 -39.29 Q 238.32 -39.76 238.32 -40.36 L 238.32 -40.36 L 238.32 -44.01 L 252.33 -44.01 L 252.33 -6.37 Q 256.54 -5.56 257.3 -5.4 L 257.3 -5.4 Q 257.86 -5.27 258.24 -4.8 Q 258.62 -4.33 258.62 -3.74 L 258.62 -3.74 L 258.62 0 Z M 243.03 -57.86 L 243.03 -57.86 Q 243.03 -59.18 243.46 -60.02 L 243.46 -60.02 Q 244.05 -61.21 244.69 -61.85 L 244.69 -61.85 Q 245.41 -62.57 246.43 -63.08 L 246.43 -63.08 Q 247.28 -63.51 248.51 -63.51 Q 249.74 -63.51 250.59 -63.08 L 250.59 -63.08 Q 251.61 -62.57 252.33 -61.85 L 252.33 -61.85 Q 252.97 -61.21 253.57 -60.02 L 253.57 -60.02 Q 254.08 -59.01 254.08 -57.86 L 254.08 -57.86 Q 254.08 -56.8 253.57 -55.78 Q 253.06 -54.76 252.33 -54.04 Q 251.61 -53.31 250.59 -52.8 L 250.59 -52.8 Q 249.74 -52.38 248.51 -52.38 Q 247.28 -52.38 246.43 -52.8 L 246.43 -52.8 Q 245.41 -53.31 244.69 -54.04 Q 243.97 -54.76 243.46 -55.78 L 243.46 -55.78 Q 243.03 -56.63 243.03 -57.86 Z M 261.89 -39.25 L 261.89 -39.25 L 261.89 -42.27 L 269.11 -43.25 L 270.86 -56.88 Q 270.86 -57.56 271.37 -57.94 L 271.37 -57.94 Q 271.83 -58.28 272.6 -58.28 L 272.6 -58.28 L 276.51 -58.28 L 276.51 -43.16 L 289.12 -43.16 L 289.12 -37.51 L 276.51 -37.51 L 276.51 -11.04 Q 276.51 -8.16 277.78 -6.88 L 277.78 -6.88 Q 279.1 -5.56 281.35 -5.56 L 281.35 -5.56 Q 282.37 -5.56 283.56 -5.9 L 283.56 -5.9 Q 284.19 -6.07 285.09 -6.63 L 285.09 -6.63 Q 285.26 -6.71 285.62 -6.97 Q 285.98 -7.22 286.15 -7.31 L 286.15 -7.31 Q 286.83 -7.65 287 -7.65 L 287 -7.65 Q 287.59 -7.65 288.06 -6.97 L 288.06 -6.97 L 290.31 -3.31 Q 287.93 -1.23 285.47 -0.34 L 285.47 -0.34 Q 282.58 0.68 279.61 0.68 L 279.61 0.68 Q 274.55 0.68 271.62 -2.25 L 271.62 -2.25 Q 268.82 -5.06 268.82 -10.62 L 268.82 -10.62 L 268.82 -37.6 L 263.55 -37.6 Q 262.78 -37.6 262.32 -37.94 L 262.32 -37.94 Q 261.89 -38.23 261.89 -39.25 Z" stroke-linecap="round" />
</g>
</g>
</g>
</svg>